<svg xmlns="http://www.w3.org/2000/svg" xmlns:xlink="http://www.w3.org/1999/xlink" width="500" zoomAndPan="magnify" viewBox="0 0 375 374.999991" height="500" preserveAspectRatio="xMidYMid meet" version="1.0"><defs><g/><clipPath id="931e3707f3"><path d="M 72 175 L 294 175 L 294 291.59375 L 72 291.59375 Z M 72 175 " clip-rule="nonzero"/></clipPath><clipPath id="3ff6abd9f1"><path d="M 72 207 L 294 207 L 294 291.59375 L 72 291.59375 Z M 72 207 " clip-rule="nonzero"/></clipPath><clipPath id="b5025a7d73"><path d="M 66.089844 129 L 309 129 L 309 226 L 66.089844 226 Z M 66.089844 129 " clip-rule="nonzero"/></clipPath></defs><g clip-path="url(#931e3707f3)"><path fill="#f7f7f7" d="M 85.730469 217.914062 C 83.996094 217.753906 82.222656 218.039062 80.625 218.738281 C 79.027344 219.441406 77.617188 220.554688 76.558594 221.941406 C 75.5 223.324219 74.800781 224.980469 74.550781 226.707031 C 74.296875 228.429688 74.484375 230.21875 75.097656 231.851562 C 76.25 234.921875 78.945312 237.367188 82.113281 238.210938 C 79.734375 238.648438 77.488281 239.8125 75.757812 241.503906 C 74.023438 243.199219 72.804688 245.414062 72.308594 247.785156 C 71.699219 250.707031 72.195312 253.847656 73.679688 256.4375 C 75.167969 259.027344 77.628906 261.042969 80.457031 261.984375 C 79.351562 263.722656 78.792969 265.796875 78.878906 267.855469 C 78.964844 269.910156 79.695312 271.9375 80.941406 273.574219 C 82.148438 275.167969 83.839844 276.386719 85.730469 277.03125 C 87.625 277.679688 89.707031 277.75 91.636719 277.226562 C 92.582031 280.707031 95.28125 283.664062 98.65625 284.921875 C 101.128906 285.839844 103.917969 285.863281 106.40625 284.988281 C 108.890625 284.113281 111.050781 282.347656 112.402344 280.085938 C 113.40625 282.441406 115.121094 284.488281 117.261719 285.894531 C 119.402344 287.300781 121.957031 288.0625 124.519531 288.046875 C 127.90625 288.027344 131.265625 286.640625 133.675781 284.257812 C 135.429688 286.53125 137.78125 288.339844 140.429688 289.457031 C 143.078125 290.566406 146.015625 290.976562 148.867188 290.640625 C 153.386719 290.101562 157.636719 287.625 160.335938 283.960938 C 162.144531 286.773438 165.121094 288.804688 168.398438 289.460938 C 170.53125 289.890625 172.769531 289.75 174.832031 289.058594 C 176.894531 288.371094 178.765625 287.132812 180.210938 285.507812 C 181.136719 287.339844 182.585938 288.902344 184.339844 289.960938 C 186.09375 291.023438 188.148438 291.578125 190.199219 291.546875 C 192.683594 291.511719 195.144531 290.601562 197.058594 289.015625 C 198.972656 287.429688 200.324219 285.179688 200.820312 282.746094 C 201.90625 284.757812 203.601562 286.4375 205.621094 287.507812 C 207.644531 288.578125 209.984375 289.035156 212.257812 288.800781 C 214.441406 288.578125 216.550781 287.726562 218.273438 286.378906 C 220 285.023438 221.328125 283.175781 222.0625 281.109375 C 225.109375 284.796875 230.050781 286.816406 234.804688 286.332031 C 237.410156 286.0625 239.9375 285.078125 242.039062 283.515625 C 244.140625 281.953125 245.804688 279.8125 246.808594 277.390625 C 248.527344 279.535156 250.855469 281.179688 253.449219 282.085938 C 256.039062 282.988281 258.886719 283.144531 261.5625 282.539062 C 266.097656 281.507812 270.054688 278.191406 271.863281 273.90625 C 273.898438 275.0625 276.410156 275.355469 278.65625 274.703125 C 280.90625 274.042969 282.863281 272.449219 283.957031 270.378906 C 284.757812 268.867188 285.101562 267.117188 284.9375 265.414062 C 284.769531 263.710938 284.089844 262.0625 283.011719 260.734375 C 284.238281 260.976562 285.535156 260.851562 286.691406 260.382812 C 287.847656 259.910156 288.863281 259.085938 289.570312 258.054688 C 290.515625 256.671875 290.886719 254.902344 290.578125 253.253906 C 290.273438 251.605469 289.292969 250.089844 287.914062 249.136719 C 289.59375 248.796875 291.132812 247.792969 292.125 246.394531 C 293.113281 244.992188 293.546875 243.210938 293.308594 241.511719 C 293.039062 239.585938 291.902344 237.796875 290.273438 236.738281 C 288.644531 235.679688 286.554688 235.367188 284.6875 235.902344 C 287.808594 234.390625 290.292969 231.609375 291.441406 228.335938 C 292.234375 226.097656 292.40625 223.644531 291.945312 221.3125 C 291.476562 218.984375 290.375 216.785156 288.789062 215.019531 C 287.203125 213.253906 285.132812 211.921875 282.867188 211.214844 C 280.601562 210.503906 278.144531 210.414062 275.832031 210.964844 C 261.230469 193.785156 240.632812 181.804688 218.488281 177.617188 C 197.132812 173.578125 175.097656 176.621094 153.773438 180.816406 C 139.015625 183.714844 124.121094 187.253906 111.066406 194.722656 C 101.050781 200.453125 92.328125 208.441406 85.730469 217.910156 L 85.730469 217.914062 " fill-opacity="1" fill-rule="nonzero"/></g><g clip-path="url(#3ff6abd9f1)"><path fill="#eeedee" d="M 252.121094 207.230469 C 253.980469 208.71875 255.117188 211.082031 255.117188 213.464844 C 255.117188 215.847656 253.980469 218.207031 252.121094 219.695312 C 251.136719 220.484375 249.960938 221.035156 248.726562 221.28125 C 250.191406 222.195312 251.289062 223.667969 251.746094 225.332031 C 252.203125 226.992188 252.003906 228.820312 251.214844 230.347656 C 250.492188 231.742188 249.285156 232.878906 247.847656 233.511719 C 246.414062 234.140625 244.757812 234.257812 243.246094 233.84375 C 244.769531 235.652344 245.34375 238.21875 244.734375 240.503906 C 244.121094 242.789062 242.339844 244.730469 240.117188 245.535156 C 238.648438 246.0625 237.011719 246.113281 235.515625 245.667969 C 234.019531 245.222656 232.671875 244.289062 231.730469 243.042969 C 232.179688 244.765625 231.960938 246.648438 231.132812 248.222656 C 230.304688 249.796875 228.875 251.046875 227.203125 251.652344 C 225.890625 252.128906 224.441406 252.214844 223.082031 251.894531 C 221.722656 251.574219 220.464844 250.851562 219.503906 249.839844 C 219.535156 251.261719 219.125 252.6875 218.367188 253.886719 C 217.609375 255.085938 216.492188 256.058594 215.199219 256.640625 C 213.882812 257.234375 212.390625 257.425781 210.96875 257.1875 C 209.546875 256.945312 208.199219 256.273438 207.15625 255.277344 C 207.078125 257.3125 206.109375 259.300781 204.550781 260.609375 C 202.914062 261.984375 200.652344 262.578125 198.550781 262.191406 C 196.445312 261.804688 194.542969 260.445312 193.496094 258.578125 C 194.007812 259.933594 193.878906 261.503906 193.160156 262.757812 C 192.4375 264.007812 191.136719 264.90625 189.714844 265.140625 C 188.773438 265.292969 187.785156 265.171875 186.914062 264.777344 C 186.046875 264.382812 185.292969 263.738281 184.785156 262.933594 C 184.066406 264.167969 183.023438 265.210938 181.789062 265.933594 C 180.425781 266.726562 178.835938 267.125 177.261719 267.0625 C 175.6875 267.003906 174.132812 266.488281 172.835938 265.59375 C 172.300781 267.238281 171.207031 268.699219 169.777344 269.675781 C 167.898438 270.949219 165.457031 271.355469 163.269531 270.757812 C 161.082031 270.15625 159.1875 268.554688 158.222656 266.5 C 157.847656 267.414062 157.222656 268.230469 156.425781 268.824219 C 155.632812 269.421875 154.679688 269.792969 153.695312 269.898438 C 152.25 270.054688 150.753906 269.605469 149.628906 268.695312 C 148.109375 270.503906 145.9375 271.753906 143.613281 272.167969 C 141.835938 272.480469 139.976562 272.308594 138.285156 271.675781 C 136.59375 271.042969 135.082031 269.957031 133.949219 268.550781 C 132.140625 269.847656 129.855469 270.457031 127.644531 270.242188 C 125.023438 269.980469 122.546875 268.542969 121.019531 266.398438 C 120.660156 267.824219 119.699219 269.089844 118.425781 269.824219 C 117.152344 270.558594 115.578125 270.757812 114.164062 270.355469 C 112.539062 269.894531 111.160156 268.644531 110.539062 267.070312 C 109.332031 267.894531 107.871094 268.347656 106.40625 268.347656 C 104.941406 268.347656 103.480469 267.894531 102.273438 267.070312 C 101.226562 266.355469 100.375 265.367188 99.824219 264.230469 C 99.273438 263.09375 99.015625 261.808594 99.097656 260.550781 C 98.074219 262.011719 96.53125 263.101562 94.808594 263.566406 C 93.085938 264.027344 91.203125 263.859375 89.585938 263.105469 C 87.347656 262.054688 85.683594 259.847656 85.28125 257.402344 C 84.882812 254.960938 85.761719 252.347656 87.550781 250.636719 C 85.777344 250.644531 84.007812 249.886719 82.789062 248.59375 C 81.945312 247.699219 81.367188 246.558594 81.136719 245.347656 C 80.910156 244.140625 81.03125 242.859375 81.488281 241.71875 C 81.945312 240.574219 82.738281 239.570312 83.742188 238.851562 C 84.742188 238.136719 85.949219 237.714844 87.179688 237.652344 C 85.988281 236.960938 84.917969 236.070312 84.019531 235.019531 C 82.664062 233.445312 81.714844 231.5 81.421875 229.4375 C 81.132812 227.378906 81.511719 225.203125 82.59375 223.429688 C 83.621094 221.734375 85.273438 220.429688 87.160156 219.820312 L 85.101562 217.898438 C 83.570312 217.851562 82.03125 218.125 80.628906 218.738281 C 79.03125 219.441406 77.617188 220.554688 76.558594 221.941406 C 75.5 223.328125 74.804688 224.984375 74.550781 226.710938 C 74.296875 228.429688 74.488281 230.21875 75.101562 231.851562 C 76.253906 234.921875 78.945312 237.367188 82.113281 238.210938 C 79.730469 238.652344 77.488281 239.816406 75.757812 241.507812 C 74.023438 243.199219 72.8125 245.417969 72.3125 247.789062 C 71.699219 250.710938 72.191406 253.847656 73.679688 256.4375 C 75.164062 259.027344 77.625 261.042969 80.457031 261.988281 C 79.351562 263.722656 78.796875 265.800781 78.878906 267.855469 C 78.96875 269.910156 79.691406 271.9375 80.9375 273.574219 C 82.148438 275.167969 83.839844 276.390625 85.730469 277.035156 C 87.625 277.683594 89.703125 277.75 91.632812 277.234375 C 92.582031 280.710938 95.277344 283.664062 98.65625 284.921875 C 101.125 285.839844 103.917969 285.863281 106.40625 284.988281 C 108.890625 284.113281 111.050781 282.347656 112.402344 280.085938 C 113.40625 282.4375 115.125 284.492188 117.261719 285.898438 C 119.402344 287.308594 121.960938 288.0625 124.523438 288.050781 C 127.910156 288.035156 131.269531 286.640625 133.675781 284.257812 C 135.433594 286.53125 137.78125 288.34375 140.429688 289.457031 C 143.078125 290.566406 146.015625 290.980469 148.867188 290.644531 C 153.386719 290.101562 157.640625 287.625 160.335938 283.960938 C 162.144531 286.773438 165.125 288.808594 168.402344 289.464844 C 170.53125 289.894531 172.773438 289.753906 174.832031 289.066406 C 176.894531 288.375 178.765625 287.132812 180.207031 285.507812 C 181.136719 287.339844 182.585938 288.902344 184.339844 289.960938 C 186.09375 291.023438 188.148438 291.578125 190.195312 291.546875 C 192.679688 291.511719 195.144531 290.605469 197.058594 289.019531 C 198.972656 287.433594 200.324219 285.179688 200.820312 282.746094 C 201.910156 284.757812 203.601562 286.4375 205.625 287.507812 C 207.644531 288.578125 209.984375 289.035156 212.261719 288.804688 C 214.441406 288.582031 216.550781 287.734375 218.273438 286.378906 C 219.996094 285.027344 221.328125 283.175781 222.0625 281.113281 C 225.109375 284.796875 230.050781 286.816406 234.804688 286.332031 C 237.410156 286.0625 239.9375 285.078125 242.039062 283.515625 C 244.140625 281.953125 245.804688 279.808594 246.808594 277.390625 C 248.527344 279.53125 250.855469 281.179688 253.449219 282.085938 C 256.039062 282.988281 258.890625 283.148438 261.566406 282.539062 C 266.101562 281.507812 270.050781 278.195312 271.863281 273.910156 C 273.898438 275.070312 276.410156 275.355469 278.65625 274.703125 C 280.902344 274.042969 282.859375 272.449219 283.957031 270.378906 C 284.757812 268.867188 285.105469 267.117188 284.9375 265.414062 C 284.769531 263.710938 284.085938 262.0625 283.011719 260.730469 C 284.238281 260.976562 285.535156 260.855469 286.695312 260.382812 C 287.851562 259.910156 288.863281 259.089844 289.566406 258.058594 C 290.515625 256.671875 290.886719 254.90625 290.578125 253.253906 C 290.273438 251.605469 289.292969 250.089844 287.910156 249.136719 C 289.589844 248.796875 291.128906 247.792969 292.121094 246.394531 C 293.113281 244.992188 293.550781 243.210938 293.3125 241.511719 C 293.042969 239.585938 291.902344 237.804688 290.273438 236.742188 C 288.644531 235.683594 286.554688 235.367188 284.6875 235.902344 C 287.808594 234.390625 290.292969 231.613281 291.445312 228.339844 C 292.234375 226.097656 292.40625 223.640625 291.9375 221.3125 C 291.476562 218.984375 290.375 216.785156 288.789062 215.015625 C 287.199219 213.253906 285.128906 211.925781 282.867188 211.214844 C 280.597656 210.507812 278.140625 210.417969 275.832031 210.96875 C 274.746094 209.6875 273.617188 208.449219 272.46875 207.230469 L 252.121094 207.230469 " fill-opacity="1" fill-rule="nonzero"/></g><g clip-path="url(#b5025a7d73)"><path fill="#f68a44" d="M 268.191406 223.230469 C 254.664062 219.238281 242.648438 211.273438 229.394531 206.441406 C 211.339844 199.855469 191.382812 199.320312 172.558594 203.226562 C 150.675781 207.761719 130.15625 218.078125 108.003906 221.046875 C 101.65625 221.898438 95.144531 222.125 88.886719 220.757812 C 82.628906 219.386719 76.605469 216.3125 72.5 211.394531 C 68.644531 206.777344 66.667969 200.746094 66.492188 194.734375 C 66.324219 188.722656 67.882812 182.738281 70.472656 177.3125 C 74.433594 169.007812 80.761719 161.972656 88.074219 156.402344 C 95.386719 150.824219 103.679688 146.652344 112.207031 143.214844 C 141.570312 131.371094 173.960938 128.078125 205.492188 130.902344 C 234.445312 133.5 263.730469 141.566406 286.570312 159.554688 C 291.9375 163.785156 296.933594 168.5625 300.855469 174.160156 C 304.777344 179.757812 307.597656 186.222656 308.367188 193.015625 C 308.890625 197.644531 308.453125 202.398438 306.941406 206.804688 C 305.433594 211.214844 302.839844 215.261719 299.367188 218.367188 C 294.683594 222.550781 288.476562 224.910156 282.207031 225.222656 C 277.472656 225.460938 272.738281 224.574219 268.191406 223.230469 " fill-opacity="1" fill-rule="nonzero"/></g><path fill="#f9ac7a" d="M 134.171875 163.214844 C 142.609375 159.78125 151.429688 157.296875 160.421875 155.816406 C 170.148438 154.21875 180.105469 153.800781 189.886719 155.070312 C 191.300781 155.257812 192.722656 155.476562 194.148438 155.429688 C 195.574219 155.378906 197.03125 155.046875 198.195312 154.21875 C 199.242188 153.476562 200 152.359375 200.371094 151.128906 C 200.746094 149.90625 200.742188 148.574219 200.4375 147.328125 C 199.824219 144.839844 198.035156 142.765625 195.929688 141.304688 C 193.273438 139.453125 190.113281 138.457031 186.941406 137.796875 C 178.625 136.058594 169.996094 136.449219 161.5625 137.511719 C 152.695312 138.628906 143.925781 140.476562 135.257812 142.667969 C 126.101562 144.980469 116.824219 147.785156 109.25 153.425781 C 107.308594 154.871094 105.46875 156.53125 104.253906 158.625 C 103.648438 159.667969 103.210938 160.820312 103.023438 162.015625 C 102.839844 163.210938 102.917969 164.457031 103.308594 165.601562 C 103.757812 166.902344 104.613281 168.054688 105.683594 168.921875 C 106.753906 169.789062 108.039062 170.378906 109.382812 170.699219 C 112.066406 171.335938 114.902344 170.90625 117.519531 170.050781 C 119.871094 169.28125 122.089844 168.175781 124.339844 167.152344 C 127.550781 165.683594 130.835938 164.371094 134.175781 163.214844 L 134.171875 163.214844 " fill-opacity="1" fill-rule="nonzero"/><path fill="#f5772a" d="M 282.734375 156.6875 C 283.457031 162.96875 281.734375 169.527344 277.945312 174.597656 C 273.59375 180.414062 266.851562 184.089844 259.824219 185.925781 C 246.433594 189.425781 232.328125 186.753906 218.597656 185.019531 C 197.757812 182.386719 176.28125 182.015625 156.070312 187.738281 C 139.003906 192.574219 123.214844 201.652344 105.785156 204.964844 C 93.203125 207.359375 80.078125 206.457031 67.839844 202.6875 C 68.839844 205.859375 70.367188 208.84375 72.496094 211.394531 C 76.605469 216.3125 82.628906 219.386719 88.886719 220.757812 C 95.144531 222.128906 101.65625 221.898438 108.007812 221.046875 C 130.160156 218.082031 150.675781 207.761719 172.558594 203.226562 C 191.382812 199.320312 211.339844 199.851562 229.394531 206.441406 C 242.644531 211.273438 254.667969 219.238281 268.191406 223.230469 C 272.742188 224.574219 277.472656 225.460938 282.210938 225.226562 C 288.480469 224.914062 294.683594 222.546875 299.363281 218.363281 C 302.835938 215.261719 305.433594 211.214844 306.941406 206.804688 C 308.453125 202.398438 308.886719 197.648438 308.363281 193.019531 C 307.59375 186.222656 304.777344 179.757812 300.855469 174.160156 C 296.933594 168.5625 291.9375 163.785156 286.570312 159.558594 C 285.3125 158.566406 284.027344 157.617188 282.734375 156.6875 " fill-opacity="1" fill-rule="nonzero"/><path fill="#fabea0" d="M 94.246094 152.15625 C 93 152.933594 91.769531 153.746094 90.5625 154.589844 C 95.847656 160.40625 100.164062 167.105469 103.238281 174.34375 C 107.734375 184.945312 109.648438 196.695312 115.71875 206.480469 C 118.292969 210.632812 121.636719 214.277344 125.453125 217.324219 C 127.753906 216.6875 130.050781 216.023438 132.339844 215.316406 C 128.382812 212.628906 124.910156 209.222656 122.214844 205.269531 C 115.144531 194.914062 113.578125 181.796875 108.203125 170.460938 C 104.890625 163.472656 100.085938 157.21875 94.246094 152.15625 " fill-opacity="1" fill-rule="nonzero"/><path fill="#fabea0" d="M 134.226562 136.03125 C 132.203125 136.550781 130.1875 137.105469 128.179688 137.691406 C 135.492188 145.785156 140.527344 155.953125 142.375 166.710938 C 143.117188 171.023438 143.386719 175.496094 145.207031 179.476562 C 146.839844 183.035156 149.605469 185.945312 152.472656 188.609375 C 155.339844 191.273438 158.390625 193.785156 160.8125 196.859375 C 162.726562 199.289062 164.175781 202.0625 165.167969 204.992188 C 167.027344 204.503906 168.898438 204.066406 170.773438 203.648438 C 169.898438 201.019531 168.707031 198.492188 167.1875 196.171875 C 162.578125 189.121094 155.3125 184.015625 151.234375 176.640625 C 147.976562 170.746094 147.027344 163.902344 145.125 157.445312 C 142.847656 149.714844 139.105469 142.441406 134.226562 136.03125 " fill-opacity="1" fill-rule="nonzero"/><path fill="#fabea0" d="M 180.363281 130.003906 C 178.964844 130.03125 177.566406 130.050781 176.171875 130.105469 C 176.296875 137.976562 178.84375 145.816406 183.496094 152.164062 C 186.296875 155.984375 189.832031 159.304688 192.007812 163.511719 C 194.847656 169 195.097656 175.421875 195.195312 181.601562 C 195.265625 185.761719 195.292969 189.96875 196.265625 194.019531 C 196.832031 196.410156 197.75 198.714844 198.941406 200.863281 C 200.578125 200.914062 202.210938 200.996094 203.839844 201.113281 C 201.691406 197.816406 200.277344 194.027344 199.804688 190.117188 C 199.375 186.523438 199.703125 182.894531 199.929688 179.285156 C 200.160156 175.671875 200.28125 172.003906 199.449219 168.480469 C 198.460938 164.269531 196.15625 160.484375 193.609375 156.988281 C 191.0625 153.488281 188.234375 150.183594 185.980469 146.488281 C 182.9375 141.492188 181.023438 135.820312 180.363281 130.003906 " fill-opacity="1" fill-rule="nonzero"/><path fill="#fabea0" d="M 224.535156 133.46875 C 224.222656 137.121094 224.53125 140.828125 225.507812 144.359375 C 226.75 148.84375 228.976562 152.976562 231.035156 157.144531 C 233.097656 161.3125 235.03125 165.640625 235.613281 170.253906 C 236.386719 176.390625 234.714844 182.539062 234.195312 188.699219 C 233.601562 195.746094 234.574219 202.898438 236.9375 209.558594 C 238.410156 210.21875 239.867188 210.894531 241.324219 211.589844 C 240.023438 208.476562 239.167969 205.179688 238.804688 201.820312 C 238.222656 196.425781 238.894531 190.984375 239.488281 185.589844 C 240.078125 180.195312 240.589844 174.71875 239.691406 169.367188 C 238.324219 161.242188 233.816406 153.972656 231.894531 145.960938 C 231.015625 142.300781 230.742188 138.507812 230.984375 134.75 C 228.839844 134.285156 226.6875 133.859375 224.535156 133.46875 " fill-opacity="1" fill-rule="nonzero"/><path fill="#fabea0" d="M 269.378906 148.425781 C 267.855469 151.917969 266.851562 155.644531 266.457031 159.4375 C 265.773438 166.011719 266.886719 172.761719 269.648438 178.769531 C 271.003906 181.730469 272.746094 184.5 274.132812 187.449219 C 275.523438 190.398438 276.566406 193.605469 276.382812 196.859375 C 276.222656 199.6875 275.152344 202.378906 273.972656 204.960938 C 272.800781 207.542969 271.5 210.097656 270.839844 212.855469 C 270.058594 216.132812 270.21875 219.628906 271.308594 222.816406 C 271.46875 223.289062 271.6875 223.734375 271.886719 224.191406 C 273.621094 224.585938 275.375 224.855469 277.140625 225.035156 C 276.082031 223.269531 275.445312 221.253906 275.320312 219.199219 C 275.109375 215.679688 276.351562 212.25 277.710938 209 C 279.070312 205.746094 280.589844 202.488281 280.992188 198.984375 C 281.59375 193.804688 279.6875 188.671875 277.5 183.9375 C 275.308594 179.203125 272.761719 174.523438 271.9375 169.371094 C 271.324219 165.542969 271.707031 161.558594 273.042969 157.917969 C 273.78125 155.902344 274.832031 154.015625 276.101562 152.285156 C 273.898438 150.925781 271.664062 149.636719 269.378906 148.425781 " fill-opacity="1" fill-rule="nonzero"/><path fill="#ffffff" d="M 128.386719 225.089844 C 134.09375 223.535156 139.582031 221.285156 145.085938 219.121094 C 149.410156 217.421875 153.785156 215.765625 158.359375 214.984375 C 160.789062 214.570312 163.296875 214.410156 165.703125 214.933594 C 168.105469 215.464844 170.410156 216.738281 171.824219 218.757812 C 172.894531 220.285156 173.402344 222.175781 173.367188 224.039062 C 173.332031 225.90625 172.761719 227.742188 171.84375 229.367188 C 170.765625 231.265625 169.222656 232.875 167.492188 234.214844 C 165.765625 235.554688 163.855469 236.632812 161.910156 237.636719 C 155.648438 240.855469 148.988281 243.277344 142.164062 245.019531 C 134.816406 246.894531 127.296875 247.976562 119.777344 248.921875 C 116.144531 249.378906 112.445312 249.804688 108.832031 249.199219 C 107.023438 248.898438 105.25 248.335938 103.65625 247.433594 C 102.058594 246.535156 100.648438 245.28125 99.660156 243.742188 C 98.589844 242.074219 98.035156 240.066406 98.144531 238.089844 C 98.253906 236.109375 99.039062 234.164062 100.367188 232.695312 C 101.582031 231.351562 103.214844 230.433594 104.921875 229.820312 C 106.628906 229.207031 108.421875 228.878906 110.214844 228.578125 C 116.296875 227.542969 122.429688 226.703125 128.386719 225.085938 L 128.386719 225.089844 " fill-opacity="1" fill-rule="nonzero"/><path fill="#f9a77e" d="M 274.773438 178.070312 C 273.5625 179.195312 272.246094 180.203125 270.851562 181.113281 C 271.957031 183.21875 273.121094 185.292969 274.132812 187.449219 C 275.523438 190.398438 276.566406 193.605469 276.382812 196.859375 C 276.222656 199.6875 275.152344 202.378906 273.972656 204.960938 C 272.800781 207.542969 271.5 210.097656 270.839844 212.855469 C 270.058594 216.132812 270.21875 219.628906 271.308594 222.816406 C 271.46875 223.289062 271.6875 223.734375 271.886719 224.191406 C 272.183594 224.261719 272.484375 224.304688 272.78125 224.363281 C 274.222656 224.65625 275.679688 224.886719 277.140625 225.035156 C 276.082031 223.269531 275.445312 221.253906 275.320312 219.199219 C 275.109375 215.679688 276.351562 212.25 277.710938 209 C 279.070312 205.746094 280.589844 202.488281 280.992188 198.984375 C 281.59375 193.804688 279.6875 188.671875 277.5 183.9375 C 276.59375 181.984375 275.65625 180.035156 274.773438 178.070312 " fill-opacity="1" fill-rule="nonzero"/><path fill="#f9a77e" d="M 234.398438 187.011719 C 234.328125 187.574219 234.242188 188.136719 234.195312 188.699219 C 233.601562 195.742188 234.578125 202.894531 236.9375 209.554688 C 238.410156 210.210938 239.867188 210.894531 241.324219 211.589844 C 240.023438 208.476562 239.167969 205.179688 238.804688 201.820312 C 238.289062 197.039062 238.769531 192.222656 239.285156 187.433594 C 237.660156 187.328125 236.027344 187.179688 234.398438 187.011719 " fill-opacity="1" fill-rule="nonzero"/><path fill="#f9a77e" d="M 195.246094 183.21875 C 195.3125 186.851562 195.417969 190.492188 196.265625 194.019531 C 196.832031 196.410156 197.75 198.714844 198.941406 200.863281 C 200.578125 200.914062 202.210938 200.996094 203.839844 201.113281 C 201.691406 197.816406 200.277344 194.027344 199.804688 190.117188 C 199.539062 187.886719 199.582031 185.644531 199.695312 183.398438 C 198.210938 183.332031 196.730469 183.25 195.246094 183.21875 " fill-opacity="1" fill-rule="nonzero"/><path fill="#f9a77e" d="M 159.339844 186.878906 C 158.246094 187.148438 157.15625 187.429688 156.070312 187.738281 C 154.933594 188.058594 153.8125 188.441406 152.683594 188.800781 C 155.492188 191.394531 158.449219 193.859375 160.8125 196.859375 C 162.726562 199.289062 164.175781 202.0625 165.167969 204.992188 C 165.558594 204.890625 165.953125 204.808594 166.34375 204.710938 C 167.816406 204.339844 169.289062 203.980469 170.773438 203.648438 C 169.898438 201.019531 168.707031 198.492188 167.1875 196.171875 C 164.972656 192.777344 162.140625 189.839844 159.339844 186.878906 " fill-opacity="1" fill-rule="nonzero"/><path fill="#f9a77e" d="M 119.746094 201.144531 C 117.773438 201.816406 115.785156 202.433594 113.785156 203.007812 C 114.382812 204.183594 115.015625 205.347656 115.71875 206.480469 C 118.292969 210.632812 121.636719 214.277344 125.453125 217.324219 C 127.753906 216.6875 130.050781 216.023438 132.339844 215.316406 C 128.382812 212.628906 124.910156 209.222656 122.214844 205.269531 C 121.304688 203.941406 120.492188 202.558594 119.746094 201.144531 " fill-opacity="1" fill-rule="nonzero"/><path fill="#fddfd0" d="M 176.855469 136.652344 C 177.902344 142.234375 180.140625 147.585938 183.496094 152.164062 C 184.113281 153.007812 184.777344 153.816406 185.441406 154.625 C 186.925781 154.742188 188.40625 154.878906 189.886719 155.070312 C 190.710938 155.179688 191.539062 155.277344 192.367188 155.351562 C 190.167969 152.445312 187.875 149.601562 185.980469 146.488281 C 184.179688 143.535156 182.824219 140.328125 181.84375 137.007812 C 180.183594 136.828125 178.523438 136.707031 176.855469 136.652344 " fill-opacity="1" fill-rule="nonzero"/><path fill="#fddfd0" d="M 138.238281 141.949219 C 137.242188 142.1875 136.246094 142.417969 135.253906 142.667969 C 134.390625 142.886719 133.53125 143.140625 132.671875 143.371094 C 136.363281 148.640625 139.179688 154.519531 140.960938 160.699219 C 142.496094 160.175781 144.046875 159.707031 145.605469 159.246094 C 145.445312 158.644531 145.300781 158.039062 145.125 157.445312 C 143.523438 152 141.175781 146.792969 138.238281 141.949219 " fill-opacity="1" fill-rule="nonzero"/><path fill="#fddfd0" d="M 103.070312 161.824219 C 103.070312 161.894531 103.035156 161.949219 103.023438 162.015625 C 102.839844 163.210938 102.914062 164.457031 103.308594 165.601562 C 103.757812 166.90625 104.609375 168.054688 105.679688 168.921875 C 106.398438 169.503906 107.230469 169.914062 108.09375 170.25 C 106.675781 167.296875 104.988281 164.480469 103.074219 161.824219 L 103.070312 161.824219 " fill-opacity="1" fill-rule="nonzero"/><path fill="#393637" d="M 182.371094 226.410156 C 176.019531 226.484375 170.863281 231.757812 170.941406 238.117188 C 170.933594 238.953125 171.261719 239.757812 171.855469 240.347656 C 172.445312 240.9375 173.25 241.265625 174.085938 241.253906 C 174.917969 241.238281 175.714844 240.894531 176.292969 240.292969 C 176.871094 239.6875 177.179688 238.875 177.152344 238.039062 C 177.117188 235.046875 179.445312 232.660156 182.441406 232.621094 C 185.4375 232.585938 187.828125 234.921875 187.867188 237.917969 C 187.855469 238.753906 188.183594 239.558594 188.777344 240.148438 C 189.367188 240.738281 190.171875 241.066406 191.007812 241.054688 C 191.84375 241.042969 192.640625 240.699219 193.21875 240.09375 C 193.796875 239.488281 194.101562 238.675781 194.074219 237.839844 C 194 231.484375 188.722656 226.332031 182.371094 226.410156 " fill-opacity="1" fill-rule="nonzero"/><path fill="#393637" d="M 241.199219 262.734375 C 239.332031 265.28125 237.074219 267.542969 234.527344 269.414062 C 228.648438 273.738281 221.273438 275.890625 213.976562 275.742188 C 206.902344 275.597656 199.894531 273.320312 194.039062 269.347656 C 191.089844 267.34375 188.347656 264.808594 187.011719 261.503906 C 186.515625 260.285156 186.226562 258.976562 186.238281 257.660156 C 186.242188 256.347656 186.570312 255.023438 187.234375 253.886719 C 187.835938 252.855469 188.710938 251.992188 189.71875 251.34375 C 190.722656 250.695312 191.859375 250.261719 193.023438 250.007812 C 195.359375 249.492188 197.792969 249.679688 200.160156 250.027344 C 204.566406 250.671875 208.890625 251.84375 213.316406 252.347656 C 215.84375 252.640625 218.402344 252.710938 220.925781 252.394531 C 224.109375 252 227.175781 251 230.257812 250.121094 C 231.90625 249.65625 233.582031 249.21875 235.292969 249.152344 C 237.003906 249.085938 238.773438 249.414062 240.199219 250.363281 C 241.414062 251.171875 242.320312 252.40625 242.820312 253.777344 C 243.320312 255.148438 243.421875 256.648438 243.199219 258.089844 C 242.9375 259.777344 242.246094 261.390625 241.199219 262.738281 L 241.199219 262.734375 " fill-opacity="1" fill-rule="nonzero"/><path fill="#231f20" d="M 238.589844 249.605469 C 238.761719 252.980469 237.976562 256.40625 236.289062 259.335938 C 234.160156 263.019531 230.738281 265.824219 226.976562 267.816406 C 218.480469 272.328125 208.144531 272.855469 198.941406 270.054688 C 195.972656 269.152344 193.113281 267.90625 190.417969 266.375 C 191.527344 267.476562 192.75 268.472656 194.035156 269.347656 C 199.894531 273.324219 206.902344 275.597656 213.976562 275.746094 C 221.273438 275.894531 228.648438 273.738281 234.527344 269.414062 C 237.074219 267.542969 239.332031 265.28125 241.199219 262.734375 C 242.246094 261.382812 242.941406 259.769531 243.199219 258.085938 C 243.417969 256.644531 243.324219 255.140625 242.820312 253.769531 C 242.320312 252.398438 241.414062 251.167969 240.203125 250.359375 C 239.703125 250.027344 239.152344 249.796875 238.589844 249.605469 " fill-opacity="1" fill-rule="nonzero"/><path fill="#f03c4f" d="M 216.171875 261.925781 C 213.0625 261.910156 209.957031 262.324219 206.949219 263.167969 C 202.457031 264.429688 198.210938 266.65625 194.507812 269.644531 C 200.269531 273.425781 207.085938 275.601562 213.976562 275.746094 C 221.273438 275.894531 228.648438 273.738281 234.527344 269.414062 C 234.972656 269.089844 235.398438 268.734375 235.828125 268.382812 C 232.636719 266.09375 229.101562 264.347656 225.390625 263.261719 C 222.394531 262.386719 219.28125 261.941406 216.171875 261.925781 " fill-opacity="1" fill-rule="nonzero"/><path fill="#ef3041" d="M 230.808594 265.375 C 229.601562 266.292969 228.3125 267.109375 226.976562 267.816406 C 218.480469 272.328125 208.144531 272.855469 198.941406 270.054688 C 197.804688 269.710938 196.691406 269.296875 195.589844 268.855469 C 195.234375 269.125 194.855469 269.363281 194.507812 269.644531 C 200.269531 273.425781 207.085938 275.601562 213.976562 275.746094 C 221.273438 275.894531 228.648438 273.738281 234.527344 269.414062 C 234.972656 269.089844 235.398438 268.734375 235.828125 268.382812 C 234.230469 267.242188 232.550781 266.234375 230.808594 265.375 " fill-opacity="1" fill-rule="nonzero"/><path fill="#ffffff" d="M 235.292969 249.144531 C 233.582031 249.214844 231.90625 249.648438 230.257812 250.121094 C 227.171875 250.992188 224.109375 251.992188 220.925781 252.390625 C 218.402344 252.707031 215.84375 252.632812 213.3125 252.34375 C 208.890625 251.835938 204.566406 250.664062 200.160156 250.023438 C 198.257812 249.746094 196.316406 249.589844 194.414062 249.796875 C 194.71875 251.109375 195.410156 252.324219 196.402344 253.234375 C 197.234375 253.996094 198.25 254.535156 199.277344 255 C 203.730469 257.015625 208.65625 257.796875 213.539062 257.917969 C 217.058594 258.011719 220.570312 257.757812 224.074219 257.429688 C 226.351562 257.214844 228.683594 256.953125 230.746094 255.960938 C 232.035156 255.34375 233.203125 254.445312 234.046875 253.285156 C 234.917969 252.089844 235.414062 250.628906 235.472656 249.148438 C 235.414062 249.148438 235.351562 249.144531 235.289062 249.144531 L 235.292969 249.144531 " fill-opacity="1" fill-rule="nonzero"/><path fill="#ededed" d="M 235.289062 249.144531 C 233.640625 249.210938 232.027344 249.625 230.4375 250.070312 C 230.492188 251.109375 230.222656 252.167969 229.652344 253.035156 C 229.152344 253.792969 228.445312 254.390625 227.65625 254.828125 C 226.300781 255.574219 224.734375 255.824219 223.203125 256.003906 C 219.949219 256.386719 216.667969 256.519531 213.394531 256.546875 C 209.78125 256.578125 206.109375 256.480469 202.636719 255.457031 C 199.789062 254.617188 197.152344 253.121094 194.910156 251.171875 C 195.277344 251.945312 195.773438 252.65625 196.402344 253.234375 C 197.234375 253.996094 198.25 254.535156 199.277344 255 C 203.730469 257.015625 208.65625 257.796875 213.539062 257.917969 C 217.054688 258.011719 220.570312 257.761719 224.070312 257.433594 C 226.351562 257.21875 228.683594 256.953125 230.75 255.964844 C 232.035156 255.347656 233.203125 254.445312 234.046875 253.289062 C 234.917969 252.089844 235.414062 250.632812 235.472656 249.148438 C 235.421875 249.152344 235.351562 249.144531 235.289062 249.144531 " fill-opacity="1" fill-rule="nonzero"/><path fill="#f03c4f" d="M 269.855469 255.566406 C 269.84375 257.160156 268.867188 258.683594 267.132812 259.800781 C 265.402344 260.914062 263.054688 261.535156 260.613281 261.519531 C 255.53125 261.488281 251.425781 258.773438 251.449219 255.453125 C 251.46875 252.132812 255.605469 249.46875 260.6875 249.496094 C 265.769531 249.53125 269.875 252.246094 269.855469 255.566406 " fill-opacity="1" fill-rule="nonzero"/><path fill="#f03c4f" d="M 177.238281 255.589844 C 177.21875 258.90625 173.082031 261.574219 168 261.542969 C 165.558594 261.527344 163.222656 260.878906 161.503906 259.742188 C 159.78125 258.605469 158.820312 257.070312 158.832031 255.476562 C 158.84375 253.882812 159.820312 252.359375 161.554688 251.242188 C 163.289062 250.125 165.628906 249.503906 168.074219 249.523438 C 173.15625 249.550781 177.261719 252.269531 177.238281 255.589844 " fill-opacity="1" fill-rule="nonzero"/><path fill="#ffffff" d="M 259.195312 232.945312 C 259.097656 236.078125 257.757812 239.042969 255.476562 241.1875 C 253.191406 243.332031 250.152344 244.480469 247.019531 244.382812 C 243.890625 244.28125 240.929688 242.941406 238.785156 240.660156 C 236.640625 238.371094 235.492188 235.332031 235.59375 232.195312 C 235.691406 229.066406 237.03125 226.101562 239.316406 223.957031 C 241.601562 221.816406 244.640625 220.664062 247.769531 220.765625 C 254.289062 220.972656 259.40625 226.425781 259.195312 232.945312 " fill-opacity="1" fill-rule="nonzero"/><path fill="#393637" d="M 256.042969 232.847656 C 255.890625 237.625 251.898438 241.378906 247.121094 241.226562 C 244.828125 241.152344 242.65625 240.171875 241.085938 238.496094 C 239.515625 236.824219 238.675781 234.59375 238.746094 232.296875 C 238.898438 227.519531 242.894531 223.769531 247.667969 223.921875 C 249.960938 223.992188 252.136719 224.976562 253.707031 226.648438 C 255.273438 228.324219 256.117188 230.554688 256.042969 232.847656 " fill-opacity="1" fill-rule="nonzero"/><path fill="#ffffff" d="M 255.347656 228.929688 C 255.316406 229.9375 254.886719 230.890625 254.148438 231.578125 C 253.417969 232.269531 252.4375 232.636719 251.429688 232.605469 C 250.425781 232.574219 249.472656 232.144531 248.78125 231.40625 C 248.09375 230.671875 247.726562 229.695312 247.757812 228.6875 C 247.789062 227.679688 248.21875 226.726562 248.953125 226.039062 C 249.6875 225.347656 250.664062 224.980469 251.671875 225.011719 C 253.765625 225.078125 255.414062 226.832031 255.347656 228.929688 " fill-opacity="1" fill-rule="nonzero"/><g fill="#ef3a4c" fill-opacity="1"><g transform="translate(68.612406, 159.102283)"><g><path d="M 2.644531 -3.074219 C 3.976562 -5.011719 3.070312 -5.8125 1.726562 -6.738281 C 1.726562 -6.738281 -0.0546875 -7.960938 -1.109375 -8.632812 C -2.480469 -9.515625 -3.746094 -10.386719 -4.996094 -11.191406 C -6.023438 -11.902344 -6.195312 -12.835938 -5.488281 -13.863281 L -3.691406 -16.472656 C -2.984375 -17.5 -2.050781 -17.671875 -1.023438 -16.964844 C 0.175781 -16.082031 1.441406 -15.210938 2.757812 -14.246094 C 3.757812 -13.496094 5.539062 -12.273438 5.539062 -12.273438 C 6.882812 -11.347656 8.195312 -11.140625 9.257812 -12.683594 C 10.59375 -14.617188 9.6875 -15.417969 8.339844 -16.34375 C 8.339844 -16.34375 6.5625 -17.570312 5.507812 -18.238281 C 3.109375 -19.832031 0.945312 -21.261719 -1.109375 -22.675781 C -4.230469 -24.828125 -7.210938 -26.9375 -10.699219 -29.398438 C -12.242188 -30.460938 -14.070312 -31.953125 -15.652344 -33.042969 C -16.679688 -33.75 -17.683594 -34.152344 -19.128906 -32.054688 C -20.460938 -30.121094 -19.410156 -29.277344 -18.144531 -28.40625 C -16.683594 -27.398438 -14.832031 -26.359375 -13.449219 -25.40625 L -7.574219 -21.417969 C -6.515625 -20.75 -6.34375 -19.8125 -7.054688 -18.785156 L -8.851562 -16.175781 C -9.558594 -15.148438 -10.492188 -14.976562 -11.492188 -15.722656 L -17.316406 -19.792969 C -18.859375 -20.855469 -20.6875 -22.347656 -22.265625 -23.4375 C -23.296875 -24.144531 -24.300781 -24.546875 -25.742188 -22.449219 C -27.078125 -20.511719 -26.027344 -19.671875 -24.761719 -18.800781 C -23.296875 -17.792969 -21.449219 -16.753906 -20.066406 -15.800781 C -16.519531 -13.417969 -13.488281 -11.386719 -10.367188 -9.238281 C -8.308594 -7.820312 -6.203125 -6.3125 -3.859375 -4.636719 C -2.855469 -3.890625 -1.078125 -2.664062 -1.078125 -2.664062 C 0.265625 -1.738281 1.582031 -1.535156 2.644531 -3.074219 Z M 2.644531 -3.074219 "/></g></g></g><g fill="#ef3a4c" fill-opacity="1"><g transform="translate(84.701736, 137.11333)"><g><path d="M 2.226562 -1.5 C 3.496094 -2.742188 3.84375 -3.414062 3.078125 -4.816406 C 2.546875 -5.773438 2.148438 -6.390625 1.851562 -7.039062 C 1.421875 -7.960938 1.332031 -9.011719 2.601562 -10.253906 C 3.875 -11.492188 4.925781 -11.378906 5.835938 -10.925781 C 6.476562 -10.613281 7.082031 -10.199219 8.027344 -9.644531 C 9.410156 -8.847656 10.089844 -9.175781 11.363281 -10.417969 C 12.324219 -11.355469 12.234375 -12.207031 11.628906 -12.824219 C 11.429688 -13.03125 11.191406 -13.203125 10.890625 -13.375 C 9.4375 -14.175781 -6.078125 -24.988281 -10.082031 -27.921875 C -11.054688 -28.648438 -13.074219 -30.164062 -13.980469 -31.09375 C -14.882812 -32.019531 -16.140625 -31.933594 -17.378906 -30.726562 C -18.613281 -29.519531 -18.730469 -28.265625 -17.828125 -27.339844 C -16.921875 -26.410156 -15.453125 -24.355469 -14.753906 -23.363281 C -11.917969 -19.289062 -1.484375 -3.515625 -0.722656 -2.046875 C -0.554688 -1.738281 -0.390625 -1.5 -0.1875 -1.292969 C 0.414062 -0.671875 1.261719 -0.5625 2.226562 -1.5 Z M -0.179688 -13.105469 C -0.832031 -12.46875 -1.550781 -11.898438 -2.320312 -12.894531 C -3.222656 -14.09375 -9.207031 -21.734375 -8.894531 -22.035156 C -8.585938 -22.335938 -1.09375 -16.171875 0.0820312 -15.238281 C 1.058594 -14.445312 0.507812 -13.773438 -0.179688 -13.105469 Z M -0.179688 -13.105469 "/></g></g></g><g fill="#ef3a4c" fill-opacity="1"><g transform="translate(104.053808, 119.290358)"><g><path d="M 3.597656 -1.867188 C 5.160156 -2.902344 4.976562 -4.21875 4.074219 -5.582031 L -0.0078125 -11.742188 C -0.882812 -13.0625 -0.257812 -13.421875 0.597656 -14.042969 C 4.316406 -16.507812 4.957031 -21.195312 1.71875 -26.074219 C -1.515625 -30.957031 -7.332031 -36.429688 -12.933594 -32.71875 C -15.972656 -30.703125 -17.761719 -29.402344 -16.089844 -26.882812 C -15.164062 -25.480469 -13.570312 -23.425781 -12.722656 -22.148438 C -10.320312 -18.613281 -8.265625 -15.597656 -6.171875 -12.4375 C -4.792969 -10.355469 -3.398438 -8.167969 -1.847656 -5.742188 C -1.199219 -4.675781 -0.00390625 -2.875 -0.00390625 -2.875 C 0.894531 -1.515625 2.039062 -0.832031 3.597656 -1.867188 Z M -2.265625 -18.710938 C -3.507812 -17.886719 -4.492188 -18.332031 -5.207031 -19.410156 L -9.4375 -25.707031 C -10.738281 -27.667969 -11.304688 -28.613281 -10.347656 -29.25 C -8.867188 -30.230469 -5.503906 -28.371094 -3.117188 -24.769531 C -1.285156 -22.007812 -0.945312 -19.585938 -2.265625 -18.710938 Z M -2.265625 -18.710938 "/></g></g></g><g fill="#ef3a4c" fill-opacity="1"><g transform="translate(125.575789, 105.872768)"><g><path d="M 3.882812 -1.175781 C 5.605469 -1.90625 5.667969 -3.234375 5.03125 -4.738281 L 2.148438 -11.542969 C 1.527344 -13.003906 2.210938 -13.238281 3.164062 -13.695312 C 7.273438 -15.4375 8.761719 -19.925781 6.476562 -25.316406 C 4.195312 -30.707031 -0.519531 -37.15625 -6.707031 -34.535156 C -10.066406 -33.113281 -12.0625 -32.164062 -10.882812 -29.378906 C -10.226562 -27.832031 -9.039062 -25.519531 -8.4375 -24.105469 C -6.730469 -20.191406 -5.261719 -16.851562 -3.78125 -13.359375 C -2.808594 -11.058594 -1.84375 -8.65625 -0.761719 -5.984375 C -0.320312 -4.816406 0.523438 -2.828125 0.523438 -2.828125 C 1.160156 -1.324219 2.15625 -0.445312 3.882812 -1.175781 Z M 1.207031 -18.808594 C -0.164062 -18.226562 -1.050781 -18.84375 -1.554688 -20.035156 L -4.558594 -27 C -5.476562 -29.167969 -5.859375 -30.203125 -4.800781 -30.652344 C -3.164062 -31.34375 -0.199219 -28.898438 1.484375 -24.921875 C 2.777344 -21.871094 2.664062 -19.425781 1.207031 -18.808594 Z M 1.207031 -18.808594 "/></g></g></g><g fill="#ef3a4c" fill-opacity="1"><g transform="translate(148.963127, 96.568339)"><g><path d="M 10.71875 -1.734375 C 13.023438 -2.210938 12.917969 -3.414062 12.589844 -5.011719 C 12.589844 -5.011719 12.035156 -7.449219 11.847656 -8.339844 L 10.6875 -13.933594 C 10.453125 -15.0625 10.75 -17.179688 11.007812 -18.3125 C 11.933594 -23.996094 12.808594 -29.714844 13.738281 -35.398438 C 13.828125 -35.664062 13.828125 -35.910156 13.777344 -36.144531 C 13.613281 -36.941406 12.800781 -37.558594 11.8125 -37.351562 C 10.355469 -37.050781 9.574219 -36.792969 8.953125 -35.535156 L 7.40625 -22.664062 C 7.328125 -22.109375 7.007812 -21.75 6.632812 -21.671875 C 6.257812 -21.59375 5.824219 -21.796875 5.527344 -22.273438 L -1.011719 -33.46875 C -2.082031 -34.375 -2.898438 -34.300781 -4.355469 -34 C -5.34375 -33.796875 -5.84375 -32.90625 -5.679688 -32.109375 C -5.628906 -31.871094 -5.535156 -31.648438 -5.34375 -31.441406 C -4.632812 -30.363281 1.960938 -19.378906 3.304688 -17.15625 C 4.34375 -15.460938 5.578125 -14 5.839844 -12.730469 C 6.101562 -11.460938 6.652344 -9.519531 7.101562 -7.355469 C 7.550781 -5.195312 7.746094 -4.007812 7.746094 -4.007812 C 8.078125 -2.410156 8.886719 -1.351562 10.71875 -1.734375 Z M 10.71875 -1.734375 "/></g></g></g><g fill="#ef3a4c" fill-opacity="1"><g transform="translate(177.704683, 91.775408)"><g/></g></g><g fill="#ef3a4c" fill-opacity="1"><g transform="translate(196.324429, 91.543806)"><g><path d="M 8.121094 1.558594 C 12.5 2.136719 16.667969 0.65625 17.257812 -3.820312 C 17.976562 -9.242188 14.3125 -10.113281 10.820312 -14.449219 C 8.570312 -17.21875 8.378906 -20.148438 8.578125 -21.671875 C 9.195312 -26.332031 10.945312 -28.570312 12.609375 -28.351562 C 14.085938 -28.15625 15.019531 -25.710938 14.445312 -21.378906 C 14.253906 -19.902344 13.90625 -18.398438 13.441406 -17.058594 C 13.207031 -15.296875 13.886719 -14.578125 15.363281 -14.382812 C 16.503906 -14.230469 17.25 -14.761719 17.640625 -15.871094 C 18.339844 -17.863281 18.921875 -20.0625 19.199219 -22.15625 C 20.035156 -28.484375 18 -32.140625 13.195312 -32.777344 C 8.199219 -33.4375 4.730469 -29.925781 3.628906 -21.597656 C 3.191406 -18.265625 3.570312 -13.085938 11.359375 -6.4375 C 11.75 -6.097656 12.386719 -5.429688 12.285156 -4.667969 C 12.121094 -3.433594 10.503906 -2.921875 8.984375 -3.121094 C 7.03125 -3.378906 5.703125 -4.328125 5.203125 -5.65625 C 4.769531 -6.777344 4.03125 -7.40625 3.03125 -7.539062 C 2.363281 -7.628906 1.730469 -7.226562 1.554688 -5.894531 C 1.070312 -2.230469 4.21875 1.042969 8.121094 1.558594 Z M 8.121094 1.558594 "/></g></g></g><g fill="#ef3a4c" fill-opacity="1"><g transform="translate(221.596513, 95.548837)"><g><path d="M 8.953125 3.5 C 11.867188 4.472656 14.8125 3.683594 16.894531 1.394531 C 18.167969 0 20.039062 -4.082031 21.910156 -9.679688 C 23.21875 -13.597656 24.332031 -16.769531 24.925781 -18.542969 C 25.515625 -20.320312 26.445312 -22.488281 27.054688 -24.308594 C 27.449219 -25.492188 27.554688 -26.570312 25.144531 -27.378906 C 22.914062 -28.121094 22.394531 -26.878906 21.910156 -25.421875 C 21.347656 -23.738281 20.859375 -21.671875 20.324219 -20.082031 C 19.792969 -18.488281 17.554688 -11.339844 16.75 -8.925781 C 14.527344 -2.28125 12.839844 -0.261719 10.519531 -1.039062 C 8.289062 -1.785156 8.183594 -4.351562 10.40625 -10.996094 L 14.226562 -22.121094 C 14.820312 -23.894531 15.746094 -26.066406 16.355469 -27.886719 C 16.75 -29.070312 16.859375 -30.148438 14.445312 -30.953125 C 12.214844 -31.699219 11.699219 -30.453125 11.210938 -28.996094 C 10.648438 -27.3125 10.160156 -25.25 9.628906 -23.65625 C 8.320312 -19.589844 7.207031 -16.113281 6.007812 -12.519531 C 5.746094 -11.742188 5.441406 -10.984375 5.214844 -10.300781 C 4.042969 -6.796875 3.449219 -4.261719 3.464844 -3.246094 C 3.628906 -0.101562 5.675781 2.402344 8.953125 3.5 Z M 8.953125 3.5 "/></g></g></g><g fill="#ef3a4c" fill-opacity="1"><g transform="translate(246.871018, 104.822017)"><g><path d="M 6.953125 4.476562 C 10.800781 6.644531 15.21875 6.824219 17.4375 2.894531 C 20.125 -1.871094 17.054688 -4.046875 15.429688 -9.371094 C 14.375 -12.777344 15.289062 -15.570312 16.042969 -16.90625 C 18.355469 -21.003906 20.8125 -22.429688 22.273438 -21.601562 C 23.570312 -20.871094 23.523438 -18.25 21.378906 -14.449219 C 20.648438 -13.152344 19.765625 -11.882812 18.832031 -10.8125 C 17.960938 -9.265625 18.320312 -8.347656 19.617188 -7.613281 C 20.621094 -7.050781 21.511719 -7.261719 22.289062 -8.148438 C 23.679688 -9.734375 25.039062 -11.554688 26.074219 -13.394531 C 29.210938 -18.957031 28.691406 -23.109375 24.46875 -25.492188 C 20.078125 -27.96875 15.550781 -26 11.425781 -18.6875 C 9.773438 -15.757812 8.191406 -10.808594 12.941406 -1.738281 C 13.175781 -1.273438 13.519531 -0.417969 13.140625 0.25 C 12.527344 1.335938 10.835938 1.207031 9.5 0.453125 C 7.785156 -0.511719 6.90625 -1.890625 6.9375 -3.304688 C 6.953125 -4.507812 6.5 -5.371094 5.625 -5.867188 C 5.039062 -6.195312 4.300781 -6.0625 3.640625 -4.890625 C 1.824219 -1.671875 3.527344 2.539062 6.953125 4.476562 Z M 6.953125 4.476562 "/></g></g></g><g fill="#ef3a4c" fill-opacity="1"><g transform="translate(268.816249, 117.940601)"><g><path d="M 2.789062 2.945312 C 4.578125 4.472656 5.464844 3.652344 6.523438 2.410156 C 6.523438 2.410156 7.925781 0.765625 8.699219 -0.214844 C 9.722656 -1.488281 10.71875 -2.65625 11.648438 -3.820312 C 12.457031 -4.769531 13.402344 -4.84375 14.355469 -4.035156 L 16.765625 -1.980469 C 17.714844 -1.171875 17.789062 -0.222656 16.980469 0.726562 C 15.976562 1.828125 14.980469 2.996094 13.886719 4.207031 C 13.039062 5.125 11.636719 6.769531 11.636719 6.769531 C 10.578125 8.011719 10.238281 9.296875 11.664062 10.511719 C 13.453125 12.039062 14.339844 11.21875 15.398438 9.976562 C 15.398438 9.976562 16.800781 8.332031 17.574219 7.351562 C 19.40625 5.128906 21.050781 3.125 22.671875 1.226562 C 25.132812 -1.660156 27.535156 -4.402344 30.34375 -7.625 C 31.558594 -9.046875 33.230469 -10.710938 34.476562 -12.175781 C 35.285156 -13.125 35.789062 -14.082031 33.851562 -15.734375 C 32.0625 -17.257812 31.117188 -16.300781 30.121094 -15.128906 C 28.96875 -13.777344 27.746094 -12.046875 26.65625 -10.769531 L 22.082031 -5.332031 C 21.308594 -4.351562 20.359375 -4.277344 19.410156 -5.085938 L 17 -7.140625 C 16.050781 -7.949219 15.976562 -8.898438 16.820312 -9.816406 L 21.46875 -15.191406 C 22.683594 -16.617188 24.355469 -18.28125 25.601562 -19.742188 C 26.410156 -20.691406 26.914062 -21.652344 24.976562 -23.300781 C 23.1875 -24.828125 22.242188 -23.867188 21.246094 -22.699219 C 20.09375 -21.347656 18.867188 -19.613281 17.777344 -18.335938 C 15.042969 -15.054688 12.714844 -12.246094 10.253906 -9.363281 C 8.632812 -7.460938 6.914062 -5.519531 5.011719 -3.359375 C 4.164062 -2.441406 2.761719 -0.796875 2.761719 -0.796875 C 1.703125 0.441406 1.363281 1.730469 2.789062 2.945312 Z M 2.789062 2.945312 "/></g></g></g><g fill="#ef3a4c" fill-opacity="1"><g transform="translate(289.258526, 136.832874)"><g><path d="M 2.28125 3.351562 C 3.804688 5.144531 4.8125 4.476562 6.054688 3.421875 C 6.054688 3.421875 7.703125 2.023438 8.621094 1.175781 C 9.835938 0.0820312 11.003906 -0.910156 12.109375 -1.910156 L 16.453125 -5.542969 L 23.617188 -11.566406 C 25.046875 -12.777344 26.960938 -14.15625 28.425781 -15.398438 C 29.375 -16.207031 30.027344 -17.074219 28.378906 -19.011719 C 26.855469 -20.804688 25.769531 -20.007812 24.597656 -19.011719 C 23.246094 -17.863281 21.761719 -16.347656 20.480469 -15.261719 C 17.253906 -12.457031 14.507812 -10.058594 11.617188 -7.605469 C 9.714844 -5.988281 7.707031 -4.34375 5.484375 -2.515625 C 4.5 -1.746094 2.855469 -0.347656 2.855469 -0.347656 C 1.609375 0.710938 1.070312 1.925781 2.28125 3.351562 Z M 2.28125 3.351562 "/></g></g></g><g fill="#ef3a4c" fill-opacity="1"><g transform="translate(299.724308, 149.895911)"><g/></g></g></svg>